<?xml version="1.0" encoding="UTF-8"?>
<svg width="1440" height="800" viewBox="0 0 1440 800" fill="none" xmlns="http://www.w3.org/2000/svg">
  <g opacity="0.3">
    <!-- Grid Pattern -->
    <path d="M0 40H1440" stroke="white" stroke-width="0.5"/>
    <path d="M0 80H1440" stroke="white" stroke-width="0.5"/>
    <path d="M0 120H1440" stroke="white" stroke-width="0.5"/>
    <path d="M0 160H1440" stroke="white" stroke-width="0.5"/>
    <path d="M0 200H1440" stroke="white" stroke-width="0.5"/>
    <path d="M0 240H1440" stroke="white" stroke-width="0.5"/>
    <path d="M0 280H1440" stroke="white" stroke-width="0.5"/>
    <path d="M0 320H1440" stroke="white" stroke-width="0.5"/>
    <path d="M0 360H1440" stroke="white" stroke-width="0.5"/>
    <path d="M0 400H1440" stroke="white" stroke-width="0.5"/>
    <path d="M0 440H1440" stroke="white" stroke-width="0.5"/>
    <path d="M0 480H1440" stroke="white" stroke-width="0.5"/>
    <path d="M0 520H1440" stroke="white" stroke-width="0.5"/>
    <path d="M0 560H1440" stroke="white" stroke-width="0.5"/>
    <path d="M0 600H1440" stroke="white" stroke-width="0.5"/>
    <path d="M0 640H1440" stroke="white" stroke-width="0.5"/>
    <path d="M0 680H1440" stroke="white" stroke-width="0.5"/>
    <path d="M0 720H1440" stroke="white" stroke-width="0.5"/>
    <path d="M0 760H1440" stroke="white" stroke-width="0.5"/>
    <path d="M0 800H1440" stroke="white" stroke-width="0.5"/>
    
    <path d="M40 0V800" stroke="white" stroke-width="0.5"/>
    <path d="M80 0V800" stroke="white" stroke-width="0.5"/>
    <path d="M120 0V800" stroke="white" stroke-width="0.5"/>
    <path d="M160 0V800" stroke="white" stroke-width="0.5"/>
    <path d="M200 0V800" stroke="white" stroke-width="0.5"/>
    <path d="M240 0V800" stroke="white" stroke-width="0.5"/>
    <path d="M280 0V800" stroke="white" stroke-width="0.5"/>
    <path d="M320 0V800" stroke="white" stroke-width="0.5"/>
    <path d="M360 0V800" stroke="white" stroke-width="0.5"/>
    <path d="M400 0V800" stroke="white" stroke-width="0.5"/>
    <path d="M440 0V800" stroke="white" stroke-width="0.5"/>
    <path d="M480 0V800" stroke="white" stroke-width="0.5"/>
    <path d="M520 0V800" stroke="white" stroke-width="0.5"/>
    <path d="M560 0V800" stroke="white" stroke-width="0.5"/>
    <path d="M600 0V800" stroke="white" stroke-width="0.5"/>
    <path d="M640 0V800" stroke="white" stroke-width="0.5"/>
    <path d="M680 0V800" stroke="white" stroke-width="0.5"/>
    <path d="M720 0V800" stroke="white" stroke-width="0.5"/>
    <path d="M760 0V800" stroke="white" stroke-width="0.5"/>
    <path d="M800 0V800" stroke="white" stroke-width="0.5"/>
    <path d="M840 0V800" stroke="white" stroke-width="0.5"/>
    <path d="M880 0V800" stroke="white" stroke-width="0.5"/>
    <path d="M920 0V800" stroke="white" stroke-width="0.5"/>
    <path d="M960 0V800" stroke="white" stroke-width="0.5"/>
    <path d="M1000 0V800" stroke="white" stroke-width="0.5"/>
    <path d="M1040 0V800" stroke="white" stroke-width="0.5"/>
    <path d="M1080 0V800" stroke="white" stroke-width="0.5"/>
    <path d="M1120 0V800" stroke="white" stroke-width="0.5"/>
    <path d="M1160 0V800" stroke="white" stroke-width="0.5"/>
    <path d="M1200 0V800" stroke="white" stroke-width="0.5"/>
    <path d="M1240 0V800" stroke="white" stroke-width="0.5"/>
    <path d="M1280 0V800" stroke="white" stroke-width="0.5"/>
    <path d="M1320 0V800" stroke="white" stroke-width="0.5"/>
    <path d="M1360 0V800" stroke="white" stroke-width="0.5"/>
    <path d="M1400 0V800" stroke="white" stroke-width="0.5"/>
    <path d="M1440 0V800" stroke="white" stroke-width="0.5"/>
  </g>
  
  <!-- Decorative Elements -->
  <circle cx="200" cy="200" r="8" fill="white" opacity="0.5"/>
  <circle cx="600" cy="400" r="8" fill="white" opacity="0.5"/>
  <circle cx="1000" cy="200" r="8" fill="white" opacity="0.5"/>
  <circle cx="1200" cy="600" r="8" fill="white" opacity="0.5"/>
  <circle cx="400" cy="600" r="8" fill="white" opacity="0.5"/>
  
  <!-- Larger Decorative Elements -->
  <circle cx="800" cy="300" r="40" fill="white" opacity="0.05"/>
  <circle cx="300" cy="500" r="60" fill="white" opacity="0.05"/>
  <circle cx="1100" cy="400" r="80" fill="white" opacity="0.05"/>
  
  <!-- Abstract Shapes -->
  <path d="M100 100L140 140M100 140L140 100" stroke="white" stroke-width="2" opacity="0.3"/>
  <path d="M1300 200L1340 240M1300 240L1340 200" stroke="white" stroke-width="2" opacity="0.3"/>
  <path d="M200 700L240 740M200 740L240 700" stroke="white" stroke-width="2" opacity="0.3"/>
  <path d="M1100 650L1140 690M1100 690L1140 650" stroke="white" stroke-width="2" opacity="0.3"/>
  
  <!-- Education-themed Icons -->
  <!-- Book -->
  <path d="M700 150H740V190C740 190 720 180 700 190V150Z" stroke="white" stroke-width="2" opacity="0.5"/>
  
  <!-- Graduation Cap -->
  <path d="M900 150L930 140L960 150L930 160L900 150Z" stroke="white" stroke-width="2" opacity="0.5"/>
  <path d="M930 160V175" stroke="white" stroke-width="2" opacity="0.5"/>
  
  <!-- Lightbulb -->
  <circle cx="500" cy="150" r="10" stroke="white" stroke-width="2" opacity="0.5"/>
  <path d="M500 160V170" stroke="white" stroke-width="2" opacity="0.5"/>
  <path d="M493 163L507 167" stroke="white" stroke-width="2" opacity="0.5"/>
  <path d="M493 167L507 163" stroke="white" stroke-width="2" opacity="0.5"/>
</svg>
