<?xml version="1.0" encoding="UTF-8"?>
<svg width="400" height="250" xmlns="http://www.w3.org/2000/svg">
  <rect width="400" height="250" fill="#6b7280"/>
  <g fill="#FFFFFF">
    <!-- Ancient column -->
    <rect x="170" y="70" width="60" height="20" rx="2"/>
    <rect x="170" y="90" width="60" height="80" />
    <rect x="170" y="170" width="60" height="20" rx="2"/>
    <!-- Column details -->
    <line x1="180" y1="90" x2="180" y2="170" stroke="#6b7280" stroke-width="2"/>
    <line x1="195" y1="90" x2="195" y2="170" stroke="#6b7280" stroke-width="2"/>
    <line x1="210" y1="90" x2="210" y2="170" stroke="#6b7280" stroke-width="2"/>
    <line x1="225" y1="90" x2="225" y2="170" stroke="#6b7280" stroke-width="2"/>
    <!-- Scroll -->
    <path d="M130,100 C120,100 120,120 130,120 L130,160 C120,160 120,180 130,180 L270,180 C280,180 280,160 270,160 L270,120 C280,120 280,100 270,100 Z" fill="none" stroke="#FFFFFF" stroke-width="3"/>
    <path d="M130,100 C140,100 140,120 130,120" fill="none" stroke="#FFFFFF" stroke-width="3"/>
    <path d="M270,100 C260,100 260,120 270,120" fill="none" stroke="#FFFFFF" stroke-width="3"/>
    <path d="M130,160 C140,160 140,180 130,180" fill="none" stroke="#FFFFFF" stroke-width="3"/>
    <path d="M270,160 C260,160 260,180 270,180" fill="none" stroke="#FFFFFF" stroke-width="3"/>
  </g>
  <text x="200" y="215" font-family="Arial, sans-serif" font-size="24" fill="#FFFFFF" text-anchor="middle">History</text>
</svg>
