<svg xmlns="http://www.w3.org/2000/svg" viewBox="0 0 512 512" width="512" height="512">
  <!-- Background Circle -->
  <circle cx="256" cy="256" r="240" fill="#0369a1" />
  
  <!-- Letter M stylized -->
  <path d="M150 150 L150 362 L200 362 L256 256 L312 362 L362 362 L362 150 L312 150 L312 282 L256 176 L200 282 L200 150 Z" fill="white" />
  
  <!-- AI text -->
  <text x="256" y="450" font-family="Arial, sans-serif" font-size="72" font-weight="bold" text-anchor="middle" fill="white">AI</text>
  
  <!-- Brain icon simplified -->
  <path d="M256 80 C310 80, 340 110, 340 140 C340 170, 310 200, 290 200 C310 220, 310 250, 290 280 C260 310, 230 280, 230 250 C200 280, 170 280, 170 250 C170 220, 200 200, 230 200 C200 170, 200 110, 256 80" fill="#f0f9ff" opacity="0.7" />
</svg>
