<svg xmlns="http://www.w3.org/2000/svg" viewBox="0 0 100 100" width="100" height="100">
  <!-- Background Circle -->
  <circle cx="50" cy="50" r="45" fill="#0369a1" />
  
  <!-- Letter M stylized -->
  <path d="M30 30 L30 70 L40 70 L50 50 L60 70 L70 70 L70 30 L60 30 L60 55 L50 35 L40 55 L40 30 Z" fill="white" />
  
  <!-- AI text -->
  <text x="50" y="85" font-family="Arial, sans-serif" font-size="14" font-weight="bold" text-anchor="middle" fill="white">AI</text>
  
  <!-- Brain icon simplified -->
  <path d="M50 15 C60 15, 65 20, 65 25 C65 30, 60 35, 55 35 C60 40, 60 45, 55 50 C50 55, 45 50, 45 45 C40 50, 35 50, 35 45 C35 40, 40 35, 45 35 C40 30, 40 20, 50 15" fill="#f0f9ff" opacity="0.7" />
</svg>
